<mxfile host="app.diagrams.net" modified="2020-12-30T03:31:23.871Z" agent="5.0 (X11)" etag="XWgVZc6lFzvdLUE_aqA0" version="14.1.3" type="github">
  <diagram id="N7QNM568emhEB9D24lQk" name="Page-1">
    <mxGraphModel dx="1422" dy="843" grid="1" gridSize="10" guides="1" tooltips="1" connect="1" arrows="1" fold="1" page="1" pageScale="1" pageWidth="827" pageHeight="1169" math="0" shadow="0">
      <root>
        <mxCell id="0" />
        <mxCell id="1" parent="0" />
        <mxCell id="STvikH6vyYPBjX1VVgPk-1" value="" style="shape=umlLifeline;participant=umlActor;perimeter=lifelinePerimeter;whiteSpace=wrap;html=1;container=1;collapsible=0;recursiveResize=0;verticalAlign=top;spacingTop=36;outlineConnect=0;" vertex="1" parent="1">
          <mxGeometry x="70" y="40" width="20" height="640" as="geometry" />
        </mxCell>
        <mxCell id="STvikH6vyYPBjX1VVgPk-11" value="" style="html=1;points=[];perimeter=orthogonalPerimeter;" vertex="1" parent="STvikH6vyYPBjX1VVgPk-1">
          <mxGeometry x="5" y="80" width="10" height="520" as="geometry" />
        </mxCell>
        <mxCell id="STvikH6vyYPBjX1VVgPk-2" value="" style="shape=umlLifeline;participant=umlBoundary;perimeter=lifelinePerimeter;whiteSpace=wrap;html=1;container=1;collapsible=0;recursiveResize=0;verticalAlign=top;spacingTop=36;outlineConnect=0;" vertex="1" parent="1">
          <mxGeometry x="220" y="40" width="50" height="640" as="geometry" />
        </mxCell>
        <mxCell id="STvikH6vyYPBjX1VVgPk-12" value="" style="html=1;points=[];perimeter=orthogonalPerimeter;" vertex="1" parent="STvikH6vyYPBjX1VVgPk-2">
          <mxGeometry x="20" y="120" width="10" height="440" as="geometry" />
        </mxCell>
        <mxCell id="STvikH6vyYPBjX1VVgPk-3" value="" style="shape=umlLifeline;participant=umlEntity;perimeter=lifelinePerimeter;whiteSpace=wrap;html=1;container=1;collapsible=0;recursiveResize=0;verticalAlign=top;spacingTop=36;outlineConnect=0;" vertex="1" parent="1">
          <mxGeometry x="540" y="40" width="40" height="640" as="geometry" />
        </mxCell>
        <mxCell id="STvikH6vyYPBjX1VVgPk-16" value="" style="html=1;points=[];perimeter=orthogonalPerimeter;" vertex="1" parent="STvikH6vyYPBjX1VVgPk-3">
          <mxGeometry x="15" y="360" width="10" height="80" as="geometry" />
        </mxCell>
        <mxCell id="STvikH6vyYPBjX1VVgPk-4" value="" style="shape=umlLifeline;participant=umlControl;perimeter=lifelinePerimeter;whiteSpace=wrap;html=1;container=1;collapsible=0;recursiveResize=0;verticalAlign=top;spacingTop=36;outlineConnect=0;" vertex="1" parent="1">
          <mxGeometry x="390" y="40" width="40" height="640" as="geometry" />
        </mxCell>
        <mxCell id="STvikH6vyYPBjX1VVgPk-15" value="" style="html=1;points=[];perimeter=orthogonalPerimeter;" vertex="1" parent="STvikH6vyYPBjX1VVgPk-4">
          <mxGeometry x="15" y="160" width="10" height="320" as="geometry" />
        </mxCell>
        <mxCell id="STvikH6vyYPBjX1VVgPk-19" value="" style="html=1;points=[];perimeter=orthogonalPerimeter;" vertex="1" parent="STvikH6vyYPBjX1VVgPk-4">
          <mxGeometry x="19" y="200" width="10" height="40" as="geometry" />
        </mxCell>
        <mxCell id="STvikH6vyYPBjX1VVgPk-20" value="xuLyTuKhoa(String)" style="edgeStyle=orthogonalEdgeStyle;html=1;align=left;spacingLeft=2;endArrow=block;rounded=0;entryX=1;entryY=0;" edge="1" target="STvikH6vyYPBjX1VVgPk-19" parent="STvikH6vyYPBjX1VVgPk-4">
          <mxGeometry relative="1" as="geometry">
            <mxPoint x="20" y="180" as="sourcePoint" />
            <Array as="points">
              <mxPoint x="45" y="180" />
            </Array>
          </mxGeometry>
        </mxCell>
        <mxCell id="STvikH6vyYPBjX1VVgPk-21" value="" style="html=1;points=[];perimeter=orthogonalPerimeter;" vertex="1" parent="STvikH6vyYPBjX1VVgPk-4">
          <mxGeometry x="19" y="280" width="10" height="40" as="geometry" />
        </mxCell>
        <mxCell id="STvikH6vyYPBjX1VVgPk-22" value="query&lt;br&gt;Database" style="edgeStyle=orthogonalEdgeStyle;html=1;align=left;spacingLeft=2;endArrow=block;rounded=0;entryX=1;entryY=0;" edge="1" target="STvikH6vyYPBjX1VVgPk-21" parent="STvikH6vyYPBjX1VVgPk-4">
          <mxGeometry relative="1" as="geometry">
            <mxPoint x="20" y="260" as="sourcePoint" />
            <Array as="points">
              <mxPoint x="45" y="260" />
            </Array>
          </mxGeometry>
        </mxCell>
        <mxCell id="STvikH6vyYPBjX1VVgPk-5" value="" style="shape=umlLifeline;participant=umlBoundary;perimeter=lifelinePerimeter;whiteSpace=wrap;html=1;container=1;collapsible=0;recursiveResize=0;verticalAlign=top;spacingTop=36;outlineConnect=0;" vertex="1" parent="1">
          <mxGeometry x="690" y="40" width="50" height="640" as="geometry" />
        </mxCell>
        <mxCell id="STvikH6vyYPBjX1VVgPk-17" value="" style="html=1;points=[];perimeter=orthogonalPerimeter;" vertex="1" parent="STvikH6vyYPBjX1VVgPk-5">
          <mxGeometry x="20" y="520" width="10" height="80" as="geometry" />
        </mxCell>
        <mxCell id="STvikH6vyYPBjX1VVgPk-6" value=":Người quản lý" style="text;align=center;fontStyle=1;verticalAlign=middle;spacingLeft=3;spacingRight=3;strokeColor=none;rotatable=0;points=[[0,0.5],[1,0.5]];portConstraint=eastwest;" vertex="1" parent="1">
          <mxGeometry x="40" y="14" width="80" height="26" as="geometry" />
        </mxCell>
        <mxCell id="STvikH6vyYPBjX1VVgPk-7" value=":FormTimKiem" style="text;align=center;fontStyle=1;verticalAlign=middle;spacingLeft=3;spacingRight=3;strokeColor=none;rotatable=0;points=[[0,0.5],[1,0.5]];portConstraint=eastwest;" vertex="1" parent="1">
          <mxGeometry x="205" y="14" width="80" height="26" as="geometry" />
        </mxCell>
        <mxCell id="STvikH6vyYPBjX1VVgPk-8" value=":TimKiem" style="text;align=center;fontStyle=1;verticalAlign=middle;spacingLeft=3;spacingRight=3;strokeColor=none;rotatable=0;points=[[0,0.5],[1,0.5]];portConstraint=eastwest;" vertex="1" parent="1">
          <mxGeometry x="374" y="14" width="80" height="26" as="geometry" />
        </mxCell>
        <mxCell id="STvikH6vyYPBjX1VVgPk-9" value=":TaiSan" style="text;align=center;fontStyle=1;verticalAlign=middle;spacingLeft=3;spacingRight=3;strokeColor=none;rotatable=0;points=[[0,0.5],[1,0.5]];portConstraint=eastwest;" vertex="1" parent="1">
          <mxGeometry x="520" y="14" width="80" height="26" as="geometry" />
        </mxCell>
        <mxCell id="STvikH6vyYPBjX1VVgPk-10" value=":FormKQ" style="text;align=center;fontStyle=1;verticalAlign=middle;spacingLeft=3;spacingRight=3;strokeColor=none;rotatable=0;points=[[0,0.5],[1,0.5]];portConstraint=eastwest;" vertex="1" parent="1">
          <mxGeometry x="660" y="14" width="110" height="26" as="geometry" />
        </mxCell>
        <mxCell id="STvikH6vyYPBjX1VVgPk-13" value="TimKiem(String)" style="html=1;verticalAlign=bottom;endArrow=block;exitX=1.2;exitY=0.077;exitDx=0;exitDy=0;exitPerimeter=0;" edge="1" parent="1" source="STvikH6vyYPBjX1VVgPk-11">
          <mxGeometry width="80" relative="1" as="geometry">
            <mxPoint x="370" y="430" as="sourcePoint" />
            <mxPoint x="240" y="160" as="targetPoint" />
          </mxGeometry>
        </mxCell>
        <mxCell id="STvikH6vyYPBjX1VVgPk-14" value="TimKiem(String)" style="html=1;verticalAlign=bottom;endArrow=block;exitX=1.3;exitY=0.111;exitDx=0;exitDy=0;exitPerimeter=0;" edge="1" parent="1" source="STvikH6vyYPBjX1VVgPk-12" target="STvikH6vyYPBjX1VVgPk-15">
          <mxGeometry width="80" relative="1" as="geometry">
            <mxPoint x="280" y="200" as="sourcePoint" />
            <mxPoint x="450" y="430" as="targetPoint" />
          </mxGeometry>
        </mxCell>
        <mxCell id="STvikH6vyYPBjX1VVgPk-23" value="timKiem()" style="html=1;verticalAlign=bottom;endArrow=block;entryX=-0.1;entryY=0;entryDx=0;entryDy=0;entryPerimeter=0;" edge="1" parent="1" target="STvikH6vyYPBjX1VVgPk-16">
          <mxGeometry width="80" relative="1" as="geometry">
            <mxPoint x="415" y="400" as="sourcePoint" />
            <mxPoint x="450" y="430" as="targetPoint" />
          </mxGeometry>
        </mxCell>
        <mxCell id="STvikH6vyYPBjX1VVgPk-25" value="ketQua" style="html=1;verticalAlign=bottom;endArrow=open;dashed=1;endSize=8;exitX=0;exitY=0.75;exitDx=0;exitDy=0;exitPerimeter=0;" edge="1" parent="1" source="STvikH6vyYPBjX1VVgPk-16">
          <mxGeometry relative="1" as="geometry">
            <mxPoint x="530" y="460" as="sourcePoint" />
            <mxPoint x="420" y="460" as="targetPoint" />
          </mxGeometry>
        </mxCell>
        <mxCell id="STvikH6vyYPBjX1VVgPk-26" value="ketQua" style="html=1;verticalAlign=bottom;endArrow=open;dashed=1;endSize=8;exitX=0;exitY=0.8;exitDx=0;exitDy=0;exitPerimeter=0;entryX=1.1;entryY=0.962;entryDx=0;entryDy=0;entryPerimeter=0;" edge="1" parent="1" source="STvikH6vyYPBjX1VVgPk-17" target="STvikH6vyYPBjX1VVgPk-11">
          <mxGeometry relative="1" as="geometry">
            <mxPoint x="710" y="590" as="sourcePoint" />
            <mxPoint x="100" y="620" as="targetPoint" />
          </mxGeometry>
        </mxCell>
        <mxCell id="STvikH6vyYPBjX1VVgPk-27" value="showKetQua" style="html=1;verticalAlign=bottom;endArrow=block;exitX=1.1;exitY=0.911;exitDx=0;exitDy=0;exitPerimeter=0;entryX=0;entryY=0;entryDx=0;entryDy=0;entryPerimeter=0;" edge="1" parent="1" source="STvikH6vyYPBjX1VVgPk-12" target="STvikH6vyYPBjX1VVgPk-17">
          <mxGeometry width="80" relative="1" as="geometry">
            <mxPoint x="370" y="430" as="sourcePoint" />
            <mxPoint x="450" y="430" as="targetPoint" />
          </mxGeometry>
        </mxCell>
        <mxCell id="STvikH6vyYPBjX1VVgPk-28" value="returnKetQua" style="html=1;verticalAlign=bottom;endArrow=open;dashed=1;endSize=8;" edge="1" parent="1" target="STvikH6vyYPBjX1VVgPk-2">
          <mxGeometry relative="1" as="geometry">
            <mxPoint x="400" y="500" as="sourcePoint" />
            <mxPoint x="280" y="500" as="targetPoint" />
          </mxGeometry>
        </mxCell>
      </root>
    </mxGraphModel>
  </diagram>
</mxfile>
